<?xml version="1.0" encoding="UTF-8" standalone="no"?>
<svg xmlns="http://www.w3.org/2000/svg" xmlns:xlink="http://www.w3.org/1999/xlink" contentStyleType="text/css" height="859.375px" preserveAspectRatio="none" style="width:593px;height:859px;" version="1.1" viewBox="0 0 593 859" width="593.75px" zoomAndPan="magnify"><defs/><g><rect fill="none" height="47.168" id="_title" rx="4.1667" ry="4.1667" style="stroke:#BABDBF;stroke-width:1.0416666666666667;" width="453.125" x="65.625" y="20.8333"/><text fill="#2FA4E7" font-family="Verdana" font-size="20.8333" font-weight="bold" lengthAdjust="spacing" textLength="430.2083" x="77.0833" y="51.6296">Mise en Situation Cas d'Utilisations</text><!--cluster Adjustem-Web--><g id="cluster_Adjustem-Web"><path d="M168.75,85.7096 L285.4167,85.7096 A6.25,6.25 0 0 1 289.5833,89.8763 L296.875,116.9271 L577.0833,116.9271 A4.1667,4.1667 0 0 1 581.25,121.0938 L581.25,843.0013 A4.1667,4.1667 0 0 1 577.0833,847.168 L168.75,847.168 A4.1667,4.1667 0 0 1 164.5833,843.0013 L164.5833,89.8763 A4.1667,4.1667 0 0 1 168.75,85.7096 " fill="none" style="stroke:#2FA4E7;stroke-width:2.0833333333333335;"/><line style="stroke:#2FA4E7;stroke-width:2.0833333333333335;" x1="164.5833" x2="296.875" y1="116.9271" y2="116.9271"/><text fill="#2FA4E7" font-family="Verdana" font-size="12.5" font-weight="bold" lengthAdjust="spacing" textLength="108.3333" x="173.9583" y="104.6041">Adjustem-Web</text></g><!--cluster Mise-en-Situation-Libre--><g id="cluster_Mise-en-Situation-Libre"><path d="M193.75,137.793 L382.2917,137.793 A6.25,6.25 0 0 1 386.4583,141.9596 L393.75,169.0104 L552.0833,169.0104 A4.1667,4.1667 0 0 1 556.25,173.1771 L556.25,818.0013 A4.1667,4.1667 0 0 1 552.0833,822.168 L193.75,822.168 A4.1667,4.1667 0 0 1 189.5833,818.0013 L189.5833,141.9596 A4.1667,4.1667 0 0 1 193.75,137.793 " fill="none" style="stroke:#2FA4E7;stroke-width:2.0833333333333335;"/><line style="stroke:#2FA4E7;stroke-width:2.0833333333333335;" x1="189.5833" x2="393.75" y1="169.0104" y2="169.0104"/><text fill="#2FA4E7" font-family="Verdana" font-size="12.5" font-weight="bold" lengthAdjust="spacing" textLength="180.2083" x="198.9583" y="156.6874">Mise-en-Situation-Libre</text></g><!--cluster Mise-en-Situation-Devis--><g id="cluster_Mise-en-Situation-Devis"><path d="M218.75,239.8763 L409.375,239.8763 A6.25,6.25 0 0 1 413.5417,244.043 L420.8333,271.0938 L527.0833,271.0938 A4.1667,4.1667 0 0 1 531.25,275.2604 L531.25,793.0013 A4.1667,4.1667 0 0 1 527.0833,797.168 L218.75,797.168 A4.1667,4.1667 0 0 1 214.5833,793.0013 L214.5833,244.043 A4.1667,4.1667 0 0 1 218.75,239.8763 " fill="none" style="stroke:#2FA4E7;stroke-width:2.0833333333333335;"/><line style="stroke:#2FA4E7;stroke-width:2.0833333333333335;" x1="214.5833" x2="420.8333" y1="271.0938" y2="271.0938"/><text fill="#2FA4E7" font-family="Verdana" font-size="12.5" font-weight="bold" lengthAdjust="spacing" textLength="182.2917" x="223.9583" y="258.7708">Mise-en-Situation-Devis</text></g><g id="elem_UC1"><ellipse cx="373.0751" cy="202.408" fill="#E0FFFF" rx="91.8251" ry="20.865" style="stroke:#2FA4E7;stroke-width:2.0833333333333335;"/><text fill="#2FA4E7" font-family="Verdana" font-size="12.5" lengthAdjust="spacing" textLength="103.125" x="321.5126" y="204.6521">Choix d'un Objet</text></g><g id="elem_UC2"><ellipse cx="373.0684" cy="304.406" fill="#FFB6C1" rx="90.7768" ry="20.7797" style="stroke:#2FA4E7;stroke-width:2.0833333333333335;"/><text fill="#2FA4E7" font-family="Verdana" font-size="12.5" lengthAdjust="spacing" textLength="101.0417" x="322.5476" y="306.65">Choix d'une Vue</text></g><g id="elem_UC3"><ellipse cx="373.1617" cy="393.1545" fill="#FFB6C1" rx="141.9117" ry="30.8823" style="stroke:#2FA4E7;stroke-width:2.0833333333333335;"/><text fill="#2FA4E7" font-family="Verdana" font-size="12.5" lengthAdjust="spacing" textLength="225" x="260.6617" y="395.3985">Implanter l'Objet ratio proportionnel</text></g><g id="elem_UC4"><ellipse cx="372.7864" cy="486.6211" fill="#FFB6C1" rx="117.0572" ry="25.9114" style="stroke:#2FA4E7;stroke-width:2.0833333333333335;"/><text fill="#2FA4E7" font-family="Verdana" font-size="12.5" lengthAdjust="spacing" textLength="167.7083" x="288.9322" y="488.8651">Implanter l'Objet ratio libre</text></g><g id="elem_UC5"><ellipse cx="372.8616" cy="578.1986" fill="#FFB6C1" rx="132.2366" ry="28.9473" style="stroke:#2FA4E7;stroke-width:2.0833333333333335;"/><text fill="#2FA4E7" font-family="Verdana" font-size="12.5" lengthAdjust="spacing" textLength="203.125" x="271.2991" y="580.4427">Implanter l'Objet en perspective</text></g><g id="elem_UC6"><ellipse cx="372.6971" cy="667.1241" fill="#FFB6C1" rx="100.3013" ry="22.5603" style="stroke:#2FA4E7;stroke-width:2.0833333333333335;"/><text fill="#2FA4E7" font-family="Verdana" font-size="12.5" lengthAdjust="spacing" textLength="126.0417" x="309.6763" y="669.3681">Ajouter une mention</text></g><g id="elem_UC7"><ellipse cx="372.9333" cy="753.213" fill="#FFB6C1" rx="121.8916" ry="26.8783" style="stroke:#2FA4E7;stroke-width:2.0833333333333335;"/><text fill="#2FA4E7" font-family="Verdana" font-size="12.5" lengthAdjust="spacing" textLength="179.1667" x="283.3499" y="755.457">Exporter la Mise en Situation</text></g><!--entity u--><g id="elem_u"><ellipse cx="47.9167" cy="462.2721" fill="#008000" rx="4.6875" ry="4.6875" style="stroke:#2FA4E7;stroke-width:1.0416666666666667;"/><path d="M34.8958,469.043 L34.8958,474.2513 L44.7917,474.2513 L44.7917,476.6027 L34.8958,486.4986 L39.3153,490.918 L47.9167,482.3166 L56.5181,490.918 L60.9375,486.4986 L51.0417,476.6027 L51.0417,474.2513 L60.9375,474.2513 L60.9375,469.043 L34.8958,469.043 " fill="#008000" style="stroke:#2FA4E7;stroke-width:1.0416666666666667;"/><text fill="#2FA4E7" font-family="Verdana" font-size="12.5" lengthAdjust="spacing" textLength="62.5" x="16.6667" y="508.7708">Utilisateur</text></g><!--link u to UC3--><g id="link_u_UC3"><path d="M84.6847,470.5107 C105.3054,461.5617 131.901,450.7346 156.25,443.0013 C192.051,431.6305 231.95,421.6534 267.5969,413.6638 " fill="none" id="u-UC3" style="stroke:#2FA4E7;stroke-width:3.125;"/></g><!--link u to UC4--><g id="link_u_UC4"><path d="M84.4398,486.7513 C125.4813,486.7513 195.1677,486.7513 255.6448,486.7513 " fill="none" id="u-UC4" style="stroke:#2FA4E7;stroke-width:3.125;"/></g><!--link u to UC5--><g id="link_u_UC5"><path d="M84.6049,503.5503 C105.1998,512.7669 131.7958,523.8503 156.25,531.543 C192.7021,543.0096 233.4854,552.6576 269.6885,560.1628 " fill="none" id="u-UC5" style="stroke:#2FA4E7;stroke-width:3.125;"/></g><!--link u to UC6--><g id="link_u_UC6"><path d="M63.7018,517.118 C81.1281,549.5826 113.2776,599.9378 156.25,626.3346 C191.1438,647.768 234.7542,658.3648 273.6073,663.4461 " fill="none" id="u-UC6" style="stroke:#2FA4E7;stroke-width:3.125;"/></g><!--link u to UC7--><g id="link_u_UC7"><path d="M54.8085,517.0742 C65.7717,565.3034 94.1481,658.9888 156.25,707.5846 C183.9031,729.2242 219.4323,741.2398 253.6385,747.7503 " fill="none" id="u-UC7" style="stroke:#2FA4E7;stroke-width:3.125;"/></g><!--link u to UC1--><g id="link_u_UC1"><path d="M55.5106,456.3721 C67.3186,408.9451 96.6867,317.5221 156.25,266.9596 C193.4146,235.4107 245.5625,219.2742 289.2646,211.019 " fill="none" id="u-UC1" style="stroke:#2FA4E7;stroke-width:3.125;"/></g><!--link u to UC2--><g id="link_u_UC2"><path d="M63.1901,456.2732 C80.3663,423.0763 112.4872,371.1065 156.25,344.043 C193.7188,320.8721 241.3875,310.5617 282.3708,306.2201 " fill="none" id="u-UC2" style="stroke:#2FA4E7;stroke-width:3.125;"/></g><!--SRC=[dP9DRm8X48Rl_8gf7ZnnqFgHU3FR7fhOj8cnFUCwTL4M20nMq_ZV2tObJTIOo86ymCpp3WCFL66DKA8B2eNc9f2I6fdVI6s54pM8aeoRqLuXL4OfyyqKVX6G0ITN5S5IEYn96ir8KWnwbHu1DSma1P7seH0UbfqvIINzSSSpDZujCRWnn800xPL3r8nPKMx42c6oN0TFMFDFNC0FOn37wIoPSDGyc_2fN3YCOT2CuB4KiP9MKHcvY_v1mzjYZTHARlEY2-rfgh_O2vsJhkEVS2iz_EDVyK3u2DXOz1gBTwatb_DUQgk49dIWEiVYm2KxiCvOuvAnHjNG7k-cgTIQXjA_Wn8VqwBpDZtpzWGQt0HDrl4pHKngIeqwtQR97TxCVTwb-wSQnFc7QYYZIvG3-viFZB40dFFKkQpwMGso6cOroggRLUyN]--></g></svg>