<?xml version="1.0" encoding="UTF-8" standalone="no"?>
<!DOCTYPE svg PUBLIC "-//W3C//DTD SVG 1.1//EN"
 "http://www.w3.org/Graphics/SVG/1.1/DTD/svg11.dtd">
<!-- Generated by graphviz version 2.43.0 (0)
 -->
<!-- Title: %3 Pages: 1 -->
<svg width="210pt" height="260pt"
 viewBox="0.00 0.00 209.94 260.00" xmlns="http://www.w3.org/2000/svg" xmlns:xlink="http://www.w3.org/1999/xlink">
<g id="graph0" class="graph" transform="scale(1 1) rotate(0) translate(4 256)">
<title>%3</title>
<polygon fill="white" stroke="transparent" points="-4,4 -4,-256 205.94,-256 205.94,4 -4,4"/>
<!-- Image_Objet -->
<g id="node1" class="node">
<title>Image_Objet</title>
<ellipse fill="none" stroke="black" cx="105.09" cy="-234" rx="69.59" ry="18"/>
<text text-anchor="middle" x="105.09" y="-230.3" font-family="Times,serif" font-size="14.00">Image_Objet</text>
</g>
<!-- Image_Vue -->
<g id="node2" class="node">
<title>Image_Vue</title>
<ellipse fill="none" stroke="black" cx="61.09" cy="-162" rx="61.19" ry="18"/>
<text text-anchor="middle" x="61.09" y="-158.3" font-family="Times,serif" font-size="14.00">Image_Vue</text>
</g>
<!-- Image_Objet&#45;&gt;Image_Vue -->
<g id="edge1" class="edge">
<title>Image_Objet&#45;&gt;Image_Vue</title>
<path fill="none" stroke="black" d="M94.44,-216.05C89.25,-207.8 82.91,-197.7 77.15,-188.54"/>
<polygon fill="black" stroke="black" points="79.93,-186.39 71.65,-179.79 74.01,-190.12 79.93,-186.39"/>
</g>
<!-- Mise_En_Situation -->
<g id="node3" class="node">
<title>Mise_En_Situation</title>
<ellipse fill="none" stroke="black" cx="105.09" cy="-90" rx="96.68" ry="18"/>
<text text-anchor="middle" x="105.09" y="-86.3" font-family="Times,serif" font-size="14.00">Mise_En_Situation</text>
</g>
<!-- Image_Objet&#45;&gt;Mise_En_Situation -->
<g id="edge2" class="edge">
<title>Image_Objet&#45;&gt;Mise_En_Situation</title>
<path fill="none" stroke="black" d="M115.87,-216.08C121.63,-206.03 128.13,-192.78 131.09,-180 134.71,-164.41 134.71,-159.59 131.09,-144 128.94,-134.72 124.92,-125.18 120.67,-116.81"/>
<polygon fill="black" stroke="black" points="123.7,-115.05 115.87,-107.92 117.54,-118.38 123.7,-115.05"/>
</g>
<!-- Image_Vue&#45;&gt;Mise_En_Situation -->
<g id="edge3" class="edge">
<title>Image_Vue&#45;&gt;Mise_En_Situation</title>
<path fill="none" stroke="black" d="M71.75,-144.05C76.86,-135.92 83.1,-126 88.79,-116.94"/>
<polygon fill="black" stroke="black" points="91.88,-118.6 94.24,-108.28 85.95,-114.88 91.88,-118.6"/>
</g>
<!-- Export -->
<g id="node4" class="node">
<title>Export</title>
<ellipse fill="none" stroke="black" cx="105.09" cy="-18" rx="42.49" ry="18"/>
<text text-anchor="middle" x="105.09" y="-14.3" font-family="Times,serif" font-size="14.00">Export</text>
</g>
<!-- Mise_En_Situation&#45;&gt;Export -->
<g id="edge4" class="edge">
<title>Mise_En_Situation&#45;&gt;Export</title>
<path fill="none" stroke="black" d="M105.09,-71.7C105.09,-63.98 105.09,-54.71 105.09,-46.11"/>
<polygon fill="black" stroke="black" points="108.59,-46.1 105.09,-36.1 101.59,-46.1 108.59,-46.1"/>
</g>
</g>
</svg>
